<svg xmlns="http://www.w3.org/2000/svg" width="36" height="32" viewBox="0 0 18 16"><path fill="#DE3163" d="M3.5 2h-3c-.275 0-.5.225-.5.5v11c0 .275.225.5.5.5h3c.275 0 .5-.225.5-.5v-11c0-.275-.225-.5-.5-.5M3 5H1V4h2zm5.5-3h-3c-.275 0-.5.225-.5.5v11c0 .275.225.5.5.5h3c.275 0 .5-.225.5-.5v-11c0-.275-.225-.5-.5-.5M8 5H6V4h2z"/><path fill="#DE3163" d="m11.954 2.773l-2.679 1.35a.5.5 0 0 0-.222.671l4.5 8.93a.5.5 0 0 0 .671.222l2.679-1.35a.5.5 0 0 0 .222-.671l-4.5-8.93a.5.5 0 0 0-.671-.222"/><path fill="#DE3163" d="M14.5 13.5a.5.5 0 1 1-1 0a.5.5 0 0 1 1 0"/></svg>