<svg version="1.2" xmlns="http://www.w3.org/2000/svg" viewBox="0 0 1651 1001" width="1651" height="1001">
	<title>lumon</title>
	<style>
		.s0 { fill: #0076a3 } 
		.s1 { fill: #ffffff } 
	</style>
	<g id="Vrstva 2">
		<path id="&lt;Path&gt;" class="s0" d="m1670.3-17.6v1036.2h-1691.6v-1036.2z"/>
	</g>
	<g id="Layer 1">
		<path id="&lt;Compound Path&gt;" class="s1" d="m1330.1 236.4c-130.1-64.9-301-101.8-483.3-104.5q-0.7 0-1.4 0-3.4-0.2-6.8-0.2-1.1 0-2.3 0.1-2.3-0.1-4.7-0.1-1.4 0-2.7 0-2 0-3.9 0c-190.5 0-369.9 37.2-505.1 104.7-138.9 69.4-215.4 163-215.4 263.6 0 100.6 76.5 194.2 215.4 263.6 135.2 67.5 314.6 104.7 505.1 104.7q1.9 0 3.9 0 1.3 0 2.7 0 2.4 0 4.7-0.1 1.2 0.1 2.3 0.1 3.4 0 6.8-0.2 0.7 0 1.4 0c182.3-2.7 353.2-39.6 483.3-104.5 138.9-69.4 215.4-163 215.4-263.6 0-100.6-76.5-194.2-215.4-263.6zm67.3 467.9h-146.1c16.9-18.6 31.5-38.2 43.7-59 6.2-10.6 11.7-21.3 16.5-32.2h-18.7c-15.4 32.8-37.5 63.5-65 91.2h-185.1c12.5-28.3 22.2-59 29.1-91.2h-17.3c-7.3 32.9-17.6 63.5-30.5 91.2h-370.8c-12.8-27.7-23.2-58.3-30.4-91.2h-17.4c6.9 32.2 16.7 62.9 29.2 91.2h-199.2c-27.5-27.7-49.6-58.3-65.1-91.2h-18.6c4.8 10.9 10.3 21.6 16.5 32.2 12.1 20.8 26.8 40.4 43.7 59h-159.3c-82.5-57.6-131.2-128.1-131.2-204.3 0-82.1 56.4-157.6 150.9-217.4h152.1c-22.3 22.3-41.2 46.4-56.2 72.1q-3 5.2-5.8 10.4h19.3c17.2-29.8 39.9-57.5 67.3-82.5h191.6c-12.4 25.6-22.4 53.3-30 82.5h17.5c8.1-29.8 18.7-57.5 31.5-82.5h358.1c12.8 25 23.4 52.7 31.4 82.5h17.6c-7.6-29.2-17.7-56.9-30.1-82.5h177.6c27.3 25 50 52.7 67.2 82.5h19.4q-2.8-5.2-5.8-10.4c-15.1-25.7-33.9-49.8-56.2-72.1h138.9c94.5 59.8 150.9 135.3 150.9 217.4 0 76.2-48.7 146.7-131.2 204.3zm-55.8-442.8h-125.6q-14.3-12.2-30.1-23.7c-41.4-29.9-88.8-53.9-140.1-71.5 114.4 18.9 215.8 52 295.8 95.2zm-152.4 0h-163.7c-3.7-6.5-7.5-13-11.5-19.2-25.3-39-55.5-68.4-88.5-87.1 103.3 14.6 195 52.7 263.7 106.3zm-353.9-112.8q4.9 0 9.8 0.1c63.6 2.8 120.6 45.6 160.9 112.7h-334.8c41-68.2 99.3-111.3 164.1-112.8zm-172.1 93.6c-4 6.2-7.8 12.7-11.5 19.2h-177.8c72.8-56.7 171.3-96.2 282.1-108.6-34.7 18.5-66.4 48.7-92.8 89.4zm-34.2-79.8c-55.8 17.8-107.2 43.2-151.7 75.3q-15.8 11.5-30.1 23.7h-138.8c85.7-46.2 196-81 320.6-99zm-343.7 562.9h147.3c13.7 12.9 28.6 25.2 44.7 36.8 44.5 32.1 95.9 57.5 151.7 75.3-136.1-19.7-255.1-59.3-343.7-112.1zm172.7 0h186.6q8.6 16.8 18.6 32.3c26.4 40.7 58.1 70.9 92.8 89.4-119.2-13.4-224-57.9-298-121.7zm387.1 125.8q-4.9 0.1-9.8 0.1c-68.9-1.5-130.3-50.2-171.5-125.9h349.6c-40.5 74.6-100.7 122.9-168.3 125.8zm168.9-93.5q10-15.5 18.6-32.3h172.5c-70.2 60.5-168.1 103.7-279.6 119.4 33-18.7 63.2-48.1 88.5-87.1zm31.8 76c51.3-17.6 98.7-41.6 140.1-71.5 16.1-11.6 31-23.9 44.6-36.8h134.2c-83.2 49.6-193.2 87.5-318.9 108.3z"/>
	</g>
</svg>